<svg width="36" height="31" viewBox="0 0 36 31" fill="none" xmlns="http://www.w3.org/2000/svg">
<path d="M22.6426 20.7143C23.4951 20.7143 24.3127 21.0529 24.9155 21.6557C25.5183 22.2585 25.8569 23.0761 25.8569 23.9286V26.0743L25.8455 26.2286C25.4026 29.2672 22.6741 30.7272 18.0955 30.7272C13.5341 30.7272 10.7612 29.2843 10.1626 26.2814L10.1426 26.0714V23.9286C10.1426 23.0761 10.4813 22.2585 11.0841 21.6557C11.6869 21.0529 12.5045 20.7143 13.3569 20.7143H22.6426ZM22.6426 22.8572H13.3569C13.0728 22.8572 12.8003 22.97 12.5993 23.171C12.3984 23.3719 12.2855 23.6444 12.2855 23.9286V25.9572C12.6855 27.6714 14.4998 28.5843 18.0955 28.5843C21.6898 28.5843 23.4241 27.6829 23.7141 25.99V23.9286C23.7141 23.6444 23.6012 23.3719 23.4003 23.171C23.1993 22.97 22.9268 22.8572 22.6426 22.8572ZM24.0626 12.1414L31.9284 12.1429C32.7808 12.1429 33.5984 12.4815 34.2012 13.0843C34.804 13.6871 35.1426 14.5047 35.1426 15.3572V17.5029L35.1312 17.6572C34.6884 20.6957 31.9598 22.1557 27.3812 22.1557L26.9312 22.1514C26.5094 21.1345 25.7404 20.3003 24.7612 19.7972C25.4969 19.94 26.3684 20.0129 27.3812 20.0129C30.9755 20.0129 32.7098 19.1114 32.9998 17.4186V15.3572C32.9998 15.073 32.8869 14.8005 32.686 14.5995C32.485 14.3986 32.2125 14.2857 31.9284 14.2857H24.4284C24.4284 13.5343 24.2998 12.8114 24.0626 12.1414ZM4.07122 12.1429L11.9369 12.1414C11.7352 12.7121 11.6154 13.3085 11.5812 13.9129L11.5712 14.2857H4.07122C3.78706 14.2857 3.51454 14.3986 3.3136 14.5995C3.11267 14.8005 2.99979 15.073 2.99979 15.3572V17.3857C3.39979 19.1 5.21408 20.0129 8.80979 20.0129C9.69836 20.0129 10.4726 19.9572 11.1412 19.8486C10.2062 20.3567 9.47353 21.17 9.0655 22.1529L8.80836 22.1557C4.24836 22.1557 1.4755 20.7129 0.876934 17.71L0.856934 17.5V15.3572C0.856934 14.5047 1.19558 13.6871 1.79838 13.0843C2.40117 12.4815 3.21874 12.1429 4.07122 12.1429ZM17.9998 9.28572C19.3259 9.28572 20.5976 9.81251 21.5353 10.7502C22.473 11.6879 22.9998 12.9596 22.9998 14.2857C22.9998 15.6118 22.473 16.8836 21.5353 17.8213C20.5976 18.7589 19.3259 19.2857 17.9998 19.2857C16.6737 19.2857 15.4019 18.7589 14.4643 17.8213C13.5266 16.8836 12.9998 15.6118 12.9998 14.2857C12.9998 12.9596 13.5266 11.6879 14.4643 10.7502C15.4019 9.81251 16.6737 9.28572 17.9998 9.28572ZM17.9998 11.4286C17.242 11.4286 16.5153 11.7296 15.9795 12.2654C15.4437 12.8012 15.1426 13.528 15.1426 14.2857C15.1426 15.0435 15.4437 15.7702 15.9795 16.306C16.5153 16.8418 17.242 17.1429 17.9998 17.1429C18.7576 17.1429 19.4843 16.8418 20.0201 16.306C20.5559 15.7702 20.8569 15.0435 20.8569 14.2857C20.8569 13.528 20.5559 12.8012 20.0201 12.2654C19.4843 11.7296 18.7576 11.4286 17.9998 11.4286ZM27.2855 0.714294C28.6116 0.714294 29.8834 1.24108 30.821 2.17876C31.7587 3.11644 32.2855 4.38821 32.2855 5.71429C32.2855 7.04038 31.7587 8.31215 30.821 9.24983C29.8834 10.1875 28.6116 10.7143 27.2855 10.7143C25.9594 10.7143 24.6877 10.1875 23.75 9.24983C22.8123 8.31215 22.2855 7.04038 22.2855 5.71429C22.2855 4.38821 22.8123 3.11644 23.75 2.17876C24.6877 1.24108 25.9594 0.714294 27.2855 0.714294ZM8.71408 0.714294C10.0402 0.714294 11.3119 1.24108 12.2496 2.17876C13.1873 3.11644 13.7141 4.38821 13.7141 5.71429C13.7141 7.04038 13.1873 8.31215 12.2496 9.24983C11.3119 10.1875 10.0402 10.7143 8.71408 10.7143C7.38799 10.7143 6.11622 10.1875 5.17854 9.24983C4.24086 8.31215 3.71408 7.04038 3.71408 5.71429C3.71408 4.38821 4.24086 3.11644 5.17854 2.17876C6.11622 1.24108 7.38799 0.714294 8.71408 0.714294ZM27.2855 2.85715C26.5277 2.85715 25.801 3.15817 25.2652 3.69399C24.7294 4.22981 24.4284 4.95653 24.4284 5.71429C24.4284 6.47206 24.7294 7.19878 25.2652 7.7346C25.801 8.27042 26.5277 8.57144 27.2855 8.57144C28.0433 8.57144 28.77 8.27042 29.3058 7.7346C29.8416 7.19878 30.1426 6.47206 30.1426 5.71429C30.1426 4.95653 29.8416 4.22981 29.3058 3.69399C28.77 3.15817 28.0433 2.85715 27.2855 2.85715ZM8.71408 2.85715C7.95631 2.85715 7.22959 3.15817 6.69377 3.69399C6.15795 4.22981 5.85693 4.95653 5.85693 5.71429C5.85693 6.47206 6.15795 7.19878 6.69377 7.7346C7.22959 8.27042 7.95631 8.57144 8.71408 8.57144C9.47184 8.57144 10.1986 8.27042 10.7344 7.7346C11.2702 7.19878 11.5712 6.47206 11.5712 5.71429C11.5712 4.95653 11.2702 4.22981 10.7344 3.69399C10.1986 3.15817 9.47184 2.85715 8.71408 2.85715Z" fill="#E86100"/>
</svg>
