<svg width="37" height="32" viewBox="0 0 37 32" fill="none" xmlns="http://www.w3.org/2000/svg">
<path fill-rule="evenodd" clip-rule="evenodd" d="M0 0V31.111H24.8742V28.8888H2.2222V2.22222H32.222V4.57776H34.4442V0H0ZM34.4442 11.1111C34.4442 11.7004 34.21 12.2657 33.7933 12.6824C33.3765 13.0992 32.8113 13.3333 32.222 13.3333C31.6326 13.3333 31.0674 13.0992 30.6506 12.6824C30.2339 12.2657 29.9998 11.7004 29.9998 11.1111C29.9998 10.5217 30.2339 9.95648 30.6506 9.53974C31.0674 9.12299 31.6326 8.88886 32.222 8.88886C32.8113 8.88886 33.3765 9.12299 33.7933 9.53974C34.21 9.95648 34.4442 10.5217 34.4442 11.1111ZM36.6664 11.1111C36.6664 12.2898 36.1981 13.4203 35.3646 14.2538C34.5311 15.0873 33.4007 15.5555 32.222 15.5555C31.0432 15.5555 29.9128 15.0873 29.0793 14.2538C28.2458 13.4203 27.7775 12.2898 27.7775 11.1111C27.7775 9.93234 28.2458 8.80188 29.0793 7.96839C29.9128 7.1349 31.0432 6.66665 32.222 6.66665C33.4007 6.66665 34.5311 7.1349 35.3646 7.96839C36.1981 8.80188 36.6664 9.93234 36.6664 11.1111Z" fill="#E86100"/>
</svg>
