<svg width="20" height="18" viewBox="0 0 20 18" fill="none" xmlns="http://www.w3.org/2000/svg">
<path d="M10.0008 3.075L11.7258 6.5625L12.0133 7.1875L12.6383 7.28125L16.4883 7.8375L13.7508 10.525L13.282 10.9812L13.3945 11.6062L14.0508 15.4375L10.607 13.6313L10.0008 13.375L9.41953 13.6812L5.97578 15.4625L6.60078 11.6312L6.71328 11.0062L6.25078 10.525L3.48828 7.80625L7.33828 7.25L7.96328 7.15625L8.25078 6.53125L10.0008 3.075ZM10.0008 0.25L7.15703 6.0125L0.800781 6.93125L5.40078 11.4188L4.31328 17.75L10.0008 14.7625L15.6883 17.75L14.6008 11.4188L19.2008 6.9375L12.8445 6.0125L10.0008 0.25Z" fill="#F7AE0D"/>
</svg>
