<svg width="40" height="40" viewBox="0 0 40 40" fill="none" xmlns="http://www.w3.org/2000/svg">
<path d="M27.777 25C27.777 29 22.2216 32 22.2216 35H17.7773C17.7773 32 12.2219 29 12.2219 25C12.2219 21.14 15.7107 18 19.9994 18C24.2882 18 27.777 21.14 27.777 25ZM22.2216 37H17.7773V40H22.2216V37ZM35.5545 24C35.5545 27.36 34.2435 30.42 32.0435 32.84L35.199 35.68C36.9076 33.8853 38.2058 31.8048 39.0191 29.5576C39.8323 27.3104 40.1447 24.9408 39.9382 22.5847C39.7318 20.2287 39.0106 17.9325 37.816 15.8278C36.6214 13.7231 34.9769 11.8514 32.9768 10.32L29.8214 13.16C31.6112 14.4705 33.0543 16.1232 34.046 17.9982C35.0377 19.8732 35.553 21.9234 35.5545 24ZM28.8881 8L19.9994 0V6C14.6953 6 9.60832 7.89642 5.8577 11.2721C2.10708 14.6477 0 19.2261 0 24C0 28.46 1.82217 32.54 4.79986 35.68L7.95533 32.84C5.67939 30.35 4.43797 27.2243 4.44432 24C4.44432 16.28 11.4219 10 19.9994 10V16L28.8881 8Z" fill="#E86100"/>
</svg>
