<svg width="38" height="37" viewBox="0 0 38 37" fill="none" xmlns="http://www.w3.org/2000/svg">
<path d="M19 14.25C19.9889 14.25 20.9556 14.5432 21.7778 15.0926C22.6001 15.6421 23.241 16.423 23.6194 17.3366C23.9978 18.2502 24.0969 19.2555 23.9039 20.2254C23.711 21.1954 23.2348 22.0863 22.5355 22.7855C21.8363 23.4848 20.9454 23.961 19.9754 24.1539C19.0055 24.3469 18.0002 24.2478 17.0866 23.8694C16.173 23.491 15.3921 22.8501 14.8426 22.0278C14.2932 21.2056 14 20.2389 14 19.25C14.0017 17.9244 14.529 16.6536 15.4663 15.7163C16.4036 14.779 17.6744 14.2517 19 14.25ZM19 21.75C19.4945 21.75 19.9778 21.6034 20.3889 21.3287C20.8 21.054 21.1205 20.6635 21.3097 20.2067C21.4989 19.7499 21.5484 19.2472 21.452 18.7623C21.3555 18.2773 21.1174 17.8319 20.7678 17.4822C20.4181 17.1326 19.9727 16.8945 19.4877 16.798C19.0028 16.7016 18.5001 16.7511 18.0433 16.9403C17.5865 17.1295 17.196 17.4499 16.9213 17.8611C16.6466 18.2722 16.5 18.7555 16.5 19.25C16.5007 19.9128 16.7643 20.5483 17.233 21.017C17.7017 21.4857 18.3372 21.7493 19 21.75ZM32.75 14.25C33.7389 14.25 34.7056 14.5432 35.5278 15.0926C36.3501 15.6421 36.991 16.423 37.3694 17.3366C37.7478 18.2502 37.8469 19.2555 37.6539 20.2254C37.461 21.1954 36.9848 22.0863 36.2855 22.7855C35.5863 23.4848 34.6954 23.961 33.7254 24.1539C32.7555 24.3469 31.7502 24.2478 30.8366 23.8694C29.923 23.491 29.1421 22.8501 28.5926 22.0278C28.0432 21.2056 27.75 20.2389 27.75 19.25C27.7517 17.9244 28.279 16.6536 29.2163 15.7163C30.1536 14.779 31.4244 14.2517 32.75 14.25ZM32.75 21.75C33.2445 21.75 33.7278 21.6034 34.1389 21.3287C34.55 21.054 34.8705 20.6635 35.0597 20.2067C35.2489 19.7499 35.2984 19.2472 35.202 18.7623C35.1055 18.2773 34.8674 17.8319 34.5178 17.4822C34.1681 17.1326 33.7227 16.8945 33.2377 16.798C32.7528 16.7016 32.2501 16.7511 31.7933 16.9403C31.3365 17.1295 30.946 17.4499 30.6713 17.8611C30.3966 18.2722 30.25 18.7555 30.25 19.25C30.2507 19.9128 30.5143 20.5483 30.983 21.017C31.4517 21.4857 32.0872 21.7493 32.75 21.75ZM26.5 0.499996C27.4889 0.499996 28.4556 0.793243 29.2778 1.34265C30.1001 1.89206 30.741 2.67295 31.1194 3.58658C31.4978 4.50021 31.5968 5.50554 31.4039 6.47545C31.211 7.44535 30.7348 8.33627 30.0355 9.03553C29.3363 9.73479 28.4454 10.211 27.4754 10.4039C26.5055 10.5969 25.5002 10.4978 24.5866 10.1194C23.6729 9.74096 22.8921 9.10009 22.3426 8.27785C21.7932 7.4556 21.5 6.4889 21.5 5.5C21.5017 4.17442 22.029 2.90361 22.9663 1.96629C23.9036 1.02897 25.1744 0.501652 26.5 0.499996ZM26.5 8C26.9945 8 27.4778 7.85337 27.8889 7.57867C28.3 7.30397 28.6205 6.91352 28.8097 6.45671C28.9989 5.99989 29.0484 5.49722 28.952 5.01227C28.8555 4.52732 28.6174 4.08186 28.2678 3.73223C27.9181 3.3826 27.4727 3.1445 26.9877 3.04803C26.5028 2.95157 26.0001 3.00108 25.5433 3.1903C25.0865 3.37952 24.696 3.69995 24.4213 4.11107C24.1466 4.52219 24 5.00554 24 5.5C24.0007 6.16284 24.2643 6.79834 24.733 7.26703C25.2017 7.73573 25.8372 7.99934 26.5 8ZM11.5 0.499996C12.4889 0.499996 13.4556 0.793243 14.2778 1.34265C15.1001 1.89206 15.741 2.67295 16.1194 3.58658C16.4978 4.50021 16.5969 5.50554 16.4039 6.47545C16.211 7.44535 15.7348 8.33627 15.0355 9.03553C14.3363 9.73479 13.4454 10.211 12.4754 10.4039C11.5055 10.5969 10.5002 10.4978 9.58658 10.1194C8.67295 9.74096 7.89206 9.10009 7.34265 8.27785C6.79324 7.4556 6.5 6.4889 6.5 5.5C6.50165 4.17442 7.02897 2.90361 7.96629 1.96629C8.90361 1.02897 10.1744 0.501652 11.5 0.499996ZM11.5 8C11.9945 8 12.4778 7.85337 12.8889 7.57867C13.3 7.30397 13.6205 6.91352 13.8097 6.45671C13.9989 5.99989 14.0484 5.49722 13.952 5.01227C13.8555 4.52732 13.6174 4.08186 13.2678 3.73223C12.9181 3.3826 12.4727 3.1445 11.9877 3.04803C11.5028 2.95157 11.0001 3.00108 10.5433 3.1903C10.0865 3.37952 9.69603 3.69995 9.42132 4.11107C9.14662 4.52219 9 5.00554 9 5.5C9.00066 6.16284 9.26426 6.79834 9.73296 7.26703C10.2017 7.73573 10.8372 7.99934 11.5 8ZM5.25 14.25C6.2389 14.25 7.2056 14.5432 8.02785 15.0926C8.85009 15.6421 9.49096 16.423 9.8694 17.3366C10.2478 18.2502 10.3469 19.2555 10.1539 20.2254C9.961 21.1954 9.48479 22.0863 8.78553 22.7855C8.08627 23.4848 7.19535 23.961 6.22545 24.1539C5.25554 24.3469 4.25021 24.2478 3.33658 23.8694C2.42295 23.491 1.64206 22.8501 1.09265 22.0278C0.543243 21.2056 0.249996 20.2389 0.249996 19.25C0.251652 17.9244 0.778969 16.6536 1.71629 15.7163C2.65361 14.779 3.92442 14.2517 5.25 14.25ZM5.25 21.75C5.74445 21.75 6.2278 21.6034 6.63892 21.3287C7.05005 21.054 7.37048 20.6635 7.5597 20.2067C7.74892 19.7499 7.79842 19.2472 7.70196 18.7623C7.6055 18.2773 7.3674 17.8319 7.01777 17.4822C6.66813 17.1326 6.22268 16.8945 5.73772 16.798C5.25277 16.7016 4.7501 16.7511 4.29329 16.9403C3.83647 17.1295 3.44603 17.4499 3.17133 17.8611C2.89662 18.2722 2.75 18.7555 2.75 19.25C2.75066 19.9128 3.01426 20.5483 3.48296 21.017C3.95166 21.4857 4.58716 21.7493 5.25 21.75ZM11.5 28C12.4889 28 13.4556 28.2932 14.2778 28.8426C15.1001 29.3921 15.741 30.173 16.1194 31.0866C16.4978 32.0002 16.5969 33.0055 16.4039 33.9754C16.211 34.9454 15.7348 35.8363 15.0355 36.5355C14.3363 37.2348 13.4454 37.711 12.4754 37.9039C11.5055 38.0969 10.5002 37.9978 9.58658 37.6194C8.67295 37.241 7.89206 36.6001 7.34265 35.7778C6.79324 34.9556 6.5 33.9889 6.5 33C6.50165 31.6744 7.02897 30.4036 7.96629 29.4663C8.90361 28.529 10.1744 28.0017 11.5 28ZM11.5 35.5C11.9945 35.5 12.4778 35.3534 12.8889 35.0787C13.3 34.804 13.6205 34.4135 13.8097 33.9567C13.9989 33.4999 14.0484 32.9972 13.952 32.5123C13.8555 32.0273 13.6174 31.5819 13.2678 31.2322C12.9181 30.8826 12.4727 30.6445 11.9877 30.548C11.5028 30.4516 11.0001 30.5011 10.5433 30.6903C10.0865 30.8795 9.69603 31.1999 9.42132 31.6111C9.14662 32.0222 9 32.5055 9 33C9.00066 33.6628 9.26426 34.2983 9.73296 34.767C10.2017 35.2357 10.8372 35.4993 11.5 35.5ZM26.5 28C27.4889 28 28.4556 28.2932 29.2778 28.8426C30.1001 29.3921 30.741 30.173 31.1194 31.0866C31.4978 32.0002 31.5968 33.0055 31.4039 33.9754C31.211 34.9454 30.7348 35.8363 30.0355 36.5355C29.3363 37.2348 28.4454 37.711 27.4754 37.9039C26.5055 38.0969 25.5002 37.9978 24.5866 37.6194C23.6729 37.241 22.8921 36.6001 22.3426 35.7778C21.7932 34.9556 21.5 33.9889 21.5 33C21.5017 31.6744 22.029 30.4036 22.9663 29.4663C23.9036 28.529 25.1744 28.0017 26.5 28ZM26.5 35.5C26.9945 35.5 27.4778 35.3534 27.8889 35.0787C28.3 34.804 28.6205 34.4135 28.8097 33.9567C28.9989 33.4999 29.0484 32.9972 28.952 32.5123C28.8555 32.0273 28.6174 31.5819 28.2678 31.2322C27.9181 30.8826 27.4727 30.6445 26.9877 30.548C26.5028 30.4516 26.0001 30.5011 25.5433 30.6903C25.0865 30.8795 24.696 31.1999 24.4213 31.6111C24.1466 32.0222 24 32.5055 24 33C24.0007 33.6628 24.2643 34.2983 24.733 34.767C25.2017 35.2357 25.8372 35.4993 26.5 35.5Z" fill="#E86100"/>
</svg>
