<svg width="34" height="34" viewBox="0 0 34 34" fill="none" xmlns="http://www.w3.org/2000/svg">
<path opacity="0.4" d="M22.774 2.83325H27.5708C29.5573 2.83325 31.167 4.45654 31.167 6.45987V11.2972C31.167 13.3005 29.5573 14.9238 27.5708 14.9238H22.774C20.7874 14.9238 19.1777 13.3005 19.1777 11.2972V6.45987C19.1777 4.45654 20.7874 2.83325 22.774 2.83325Z" fill="#E86100"/>
<path fill-rule="evenodd" clip-rule="evenodd" d="M6.43023 2.83325H11.227C13.2136 2.83325 14.8233 4.45654 14.8233 6.45987V11.2972C14.8233 13.3005 13.2136 14.9238 11.227 14.9238H6.43023C4.44368 14.9238 2.83398 13.3005 2.83398 11.2972V6.45987C2.83398 4.45654 4.44368 2.83325 6.43023 2.83325ZM6.43023 19.0761H11.227C13.2136 19.0761 14.8233 20.6994 14.8233 22.7027V27.54C14.8233 29.5419 13.2136 31.1666 11.227 31.1666H6.43023C4.44368 31.1666 2.83398 29.5419 2.83398 27.54V22.7027C2.83398 20.6994 4.44368 19.0761 6.43023 19.0761ZM27.5711 19.0761H22.7743C20.7877 19.0761 19.178 20.6994 19.178 22.7027V27.54C19.178 29.5419 20.7877 31.1666 22.7743 31.1666H27.5711C29.5576 31.1666 31.1673 29.5419 31.1673 27.54V22.7027C31.1673 20.6994 29.5576 19.0761 27.5711 19.0761Z" fill="#E86100"/>
</svg>
