<svg width="34" height="34" viewBox="0 0 34 34" fill="none" xmlns="http://www.w3.org/2000/svg">
<path opacity="0.4" d="M17.029 2.83325C8.79815 2.83325 2.83398 9.54825 2.83398 16.9999C2.83398 19.3799 3.52815 21.8308 4.74648 24.0691C4.97315 24.4374 5.00148 24.9049 4.84565 25.3441L3.89648 28.5174C3.68398 29.2824 4.33565 29.8491 5.05815 29.6224L7.91982 28.7724C8.69898 28.5174 9.30815 28.8433 10.0321 29.2824C12.1004 30.5008 14.6773 31.1241 17.0007 31.1241C24.0273 31.1241 31.1673 25.6983 31.1673 16.9574C31.1673 9.42075 25.0757 2.83325 17.029 2.83325Z" fill="#979797"/>
<path fill-rule="evenodd" clip-rule="evenodd" d="M16.9736 18.8275C15.9678 18.8134 15.1603 18.0059 15.1603 17C15.1603 16.0084 15.982 15.1867 16.9736 15.2009C17.9795 15.2009 18.787 16.0084 18.787 17.0142C18.787 18.0059 17.9795 18.8275 16.9736 18.8275ZM10.4422 18.8275C9.45057 18.8275 8.62891 18.0058 8.62891 17.0141C8.62891 16.0083 9.43641 15.2008 10.4422 15.2008C11.4481 15.2008 12.2556 16.0083 12.2556 17.0141C12.2556 18.0058 11.4481 18.8133 10.4422 18.8275ZM21.6909 17.0142C21.6909 18.0059 22.4984 18.8275 23.5042 18.8275C24.51 18.8275 25.3175 18.0059 25.3175 17.0142C25.3175 16.0084 24.51 15.2009 23.5042 15.2009C22.4984 15.2009 21.6909 16.0084 21.6909 17.0142Z" fill="#979797"/>
</svg>
