<svg width="20" height="12" viewBox="0 0 20 12" fill="none" xmlns="http://www.w3.org/2000/svg">
<path d="M14.2856 11.7139C12.6458 11.7133 11.085 11.0091 9.99957 9.77993C8.25945 11.7525 5.39749 12.2823 3.06657 11.0633C0.735647 9.84434 -0.461938 7.19155 0.165465 4.63704C0.792869 2.08254 3.08314 0.286387 5.71357 0.285936C6.61252 0.283794 7.49902 0.495993 8.29957 0.904936C7.67519 1.63701 7.19141 2.47812 6.87257 3.38594C5.71607 2.8737 4.36041 3.18288 3.54036 4.1459C2.72032 5.10892 2.63109 6.49652 3.32106 7.55663C4.01102 8.61673 5.31592 9.09698 6.5285 8.73708C7.74108 8.37718 8.57267 7.2628 8.57257 5.99794C8.57257 2.84218 11.1308 0.283936 14.2866 0.283936C17.4423 0.283936 20.0006 2.84218 20.0006 5.99794C20.0006 9.15369 17.4423 11.7119 14.2866 11.7119L14.2856 11.7139ZM11.4296 6.09994C11.457 7.66782 12.7431 8.92055 14.3111 8.90683C15.8792 8.8931 17.1431 7.61806 17.1431 6.04994C17.1431 4.48181 15.8792 3.20677 14.3111 3.19305C12.7431 3.17932 11.457 4.43205 11.4296 5.99994V6.09994Z" fill="#050C43" fill-opacity="0.6"/>
</svg>
