<svg width="32" height="32" viewBox="0 0 32 32" fill="none" xmlns="http://www.w3.org/2000/svg">
<path d="M8.94847 24.0003C7.96978 24.0004 7.01305 23.7103 6.19927 23.1666C5.38548 22.6229 4.75121 21.8501 4.37667 20.9459C4.00213 20.0417 3.90414 19.0468 4.0951 18.0869C4.28606 17.127 4.75739 16.2453 5.44947 15.5533L10.5555 10.4493C11.4835 9.52134 12.7421 9 14.0545 9C15.3669 9 16.6255 9.52134 17.5535 10.4493C18.4815 11.3773 19.0028 12.636 19.0028 13.9483C19.0028 15.2607 18.4815 16.5193 17.5535 17.4473L17.0005 17.9993L15.5855 16.5863L16.1425 16.0293C16.6934 15.4758 17.0023 14.7264 17.0015 13.9455C17.0008 13.1646 16.6904 12.4158 16.1385 11.8633C15.5767 11.3272 14.83 11.0281 14.0535 11.0281C13.2769 11.0281 12.5302 11.3272 11.9685 11.8633L6.86447 16.9673C6.59047 17.241 6.37311 17.566 6.2248 17.9238C6.07649 18.2816 6.00016 18.6651 6.00016 19.0523C6.00016 19.4396 6.07649 19.8231 6.2248 20.1809C6.37311 20.5386 6.59047 20.8636 6.86447 21.1373C7.42624 21.6735 8.17294 21.9726 8.94947 21.9726C9.72601 21.9726 10.4727 21.6735 11.0345 21.1373L12.4485 22.5513C11.9898 23.0122 11.4443 23.3776 10.8436 23.6263C10.2428 23.8751 9.59869 24.0022 8.94847 24.0003Z" fill="white"/>
<path d="M16.9485 22.0003C15.9698 22.0004 15.013 21.7103 14.1993 21.1666C13.3855 20.6229 12.7512 19.8501 12.3767 18.9459C12.0021 18.0417 11.9041 17.0468 12.0951 16.0869C12.2861 15.127 12.7574 14.2453 13.4495 13.5533L14.0025 13.0013L15.4165 14.4163L14.8645 14.9683C14.3116 15.5212 14.0011 16.271 14.0011 17.0528C14.0011 17.8347 14.3116 18.5845 14.8645 19.1373C15.4262 19.6735 16.1729 19.9726 16.9495 19.9726C17.726 19.9726 18.4727 19.6735 19.0345 19.1373L24.1395 14.0323C24.6913 13.4791 25.0011 12.7297 25.0011 11.9483C25.0011 11.167 24.6913 10.4175 24.1395 9.86433C23.5777 9.32821 22.831 9.02909 22.0545 9.02909C21.2779 9.02909 20.5312 9.32821 19.9695 9.86433L18.5555 8.44933C19.4835 7.52134 20.7421 7 22.0545 7C23.3669 7 24.6255 7.52134 25.5535 8.44933C26.4815 9.37733 27.0028 10.636 27.0028 11.9483C27.0028 13.2607 26.4815 14.5193 25.5535 15.4473L20.4495 20.5503C19.9908 21.0113 19.4454 21.3768 18.8446 21.6257C18.2439 21.8746 17.5997 22.0019 16.9495 22.0003H16.9485Z" fill="white"/>
</svg>
