<svg width="34" height="34" viewBox="0 0 34 34" fill="none" xmlns="http://www.w3.org/2000/svg">
<path d="M28.0075 16.4975C26.9726 15.289 26.5023 14.2417 26.5023 12.4626V11.8576C26.5023 9.5391 25.9687 8.04526 24.8086 6.55143C23.0204 4.23149 20.0102 2.83325 17.0633 2.83325H16.938C14.0531 2.83325 11.1372 4.16729 9.31806 6.39306C8.09454 7.91685 7.49896 9.47489 7.49896 11.8576V12.4626C7.49896 14.2417 7.05968 15.289 5.99384 16.4975C5.2096 17.3878 4.95898 18.5321 4.95898 19.7705C4.95898 21.0104 5.36589 22.1846 6.18251 23.1391C7.24834 24.2834 8.75346 25.0139 10.291 25.1409C12.517 25.3948 14.743 25.4904 17.0014 25.4904C19.2583 25.4904 21.4843 25.3306 23.7117 25.1409C25.2478 25.0139 26.753 24.2834 27.8188 23.1391C28.634 22.1846 29.0423 21.0104 29.0423 19.7705C29.0423 18.5321 28.7917 17.3878 28.0075 16.4975Z" fill="#979797"/>
<path opacity="0.4" d="M19.8455 27.2401C19.1373 27.0889 14.8219 27.0889 14.1136 27.2401C13.5082 27.38 12.8535 27.7053 12.8535 28.4187C12.8887 29.0992 13.2872 29.6999 13.8391 30.0808L13.8377 30.0823C14.5515 30.6387 15.3893 30.9926 16.2664 31.1195C16.7339 31.1837 17.2098 31.1809 17.6941 31.1195C18.5699 30.9926 19.4076 30.6387 20.1215 30.0823L20.1201 30.0808C20.672 29.6999 21.0704 29.0992 21.1056 28.4187C21.1056 27.7053 20.4509 27.38 19.8455 27.2401Z" fill="#979797"/>
</svg>
