<svg width="34" height="34" viewBox="0 0 34 34" fill="none" xmlns="http://www.w3.org/2000/svg">
<path opacity="0.4" d="M31.1673 17.0068C31.1673 24.8111 24.8087 31.1666 17.0007 31.1666C9.19258 31.1666 2.83398 24.8111 2.83398 17.0068C2.83398 9.18878 9.19258 2.83325 17.0007 2.83325C24.8087 2.83325 31.1673 9.18878 31.1673 17.0068Z" fill="#979797"/>
<path d="M22.6667 17.0068C22.6667 17.3648 22.554 17.7243 22.3286 18.0121C22.2863 18.0685 22.0891 18.3013 21.9342 18.4527L21.8497 18.5354C20.6664 19.7899 17.7224 21.6765 16.2293 22.281C16.2293 22.2948 15.3419 22.6542 14.9193 22.6666H14.8629C14.215 22.6666 13.6093 22.3099 13.2994 21.7316C13.1303 21.4134 12.9754 20.4908 12.9613 20.4784C12.8345 19.6508 12.75 18.3839 12.75 16.993C12.75 15.5347 12.8345 14.2113 12.9895 13.3989C12.9895 13.3851 13.1444 12.6415 13.243 12.3936C13.398 12.0369 13.6797 11.7326 14.0318 11.5398C14.3136 11.4035 14.6094 11.3333 14.9193 11.3333C15.2433 11.3484 15.849 11.5536 16.0884 11.65C17.6661 12.2559 20.6805 14.2389 21.8356 15.4507C22.0328 15.6435 22.2441 15.879 22.3004 15.9327C22.5399 16.2356 22.6667 16.6075 22.6667 17.0068Z" fill="#979797"/>
</svg>
