<svg width="34" height="34" viewBox="0 0 34 34" fill="none" xmlns="http://www.w3.org/2000/svg">
<path d="M17.016 21.0093C14.743 21.0093 12.9043 19.2385 12.9043 17.0143C12.9043 14.7901 14.743 13.0051 17.016 13.0051C19.289 13.0051 21.0842 14.7901 21.0842 17.0143C21.0842 19.2385 19.289 21.0093 17.016 21.0093Z" fill="#979797"/>
<path opacity="0.4" d="M30.0754 20.3577C29.8003 19.9327 29.4094 19.5077 28.9027 19.2385C28.4973 19.0402 28.2367 18.7143 28.0051 18.3318C27.2667 17.1135 27.701 15.5127 28.9316 14.7902C30.3794 13.9827 30.8427 12.1835 30.003 10.781L29.033 9.10933C28.2077 7.70683 26.398 7.211 24.9647 8.03266C23.6907 8.71266 22.0547 8.25933 21.3163 7.05516C21.0847 6.6585 20.9544 6.2335 20.9834 5.8085C21.0268 5.256 20.8531 4.73183 20.5925 4.30683C20.0568 3.4285 19.0868 2.8335 18.0154 2.8335H15.9741C14.9172 2.86183 13.9472 3.4285 13.4115 4.30683C13.1364 4.73183 12.9772 5.256 13.0061 5.8085C13.0351 6.2335 12.9048 6.6585 12.6731 7.05516C11.9348 8.25933 10.2988 8.71266 9.03923 8.03266C7.59145 7.211 5.79622 7.70683 4.95651 9.10933L3.9865 10.781C3.16127 12.1835 3.62456 13.9827 5.05785 14.7902C6.28846 15.5127 6.72279 17.1135 5.9989 18.3318C5.75278 18.7143 5.49218 19.0402 5.08681 19.2385C4.59456 19.5077 4.16023 19.9327 3.92859 20.3577C3.39291 21.236 3.42187 22.341 3.95754 23.2618L4.95651 24.9618C5.49218 25.8685 6.49115 26.4352 7.53354 26.4352C8.02579 26.4352 8.60489 26.2935 9.06818 26.0102C9.43013 25.7693 9.86446 25.6843 10.3422 25.6843C11.7755 25.6843 12.9772 26.8602 13.0061 28.2627C13.0061 29.8918 14.3381 31.1668 16.0175 31.1668H17.9865C19.6514 31.1668 20.9834 29.8918 20.9834 28.2627C21.0268 26.8602 22.2284 25.6843 23.6617 25.6843C24.125 25.6843 24.5594 25.7693 24.9358 26.0102C25.3991 26.2935 25.9637 26.4352 26.4704 26.4352C27.4983 26.4352 28.4973 25.8685 29.033 24.9618L30.0464 23.2618C30.5676 22.3127 30.611 21.236 30.0754 20.3577Z" fill="#979797"/>
</svg>
