<svg width="26" height="24" viewBox="0 0 26 24" fill="none" xmlns="http://www.w3.org/2000/svg">
<path fill-rule="evenodd" clip-rule="evenodd" d="M13.902 3.44083L16.3581 8.09983C16.4811 8.33483 16.7186 8.49883 16.9944 8.53683L22.4929 9.28583C22.7156 9.31383 22.916 9.42383 23.0528 9.59183C23.3094 9.90683 23.2702 10.3528 22.9627 10.6238L18.9774 14.2578C18.7749 14.4378 18.6847 14.7018 18.7378 14.9588L19.6922 20.0868C19.759 20.5118 19.4515 20.9098 19.0008 20.9788C18.8141 21.0058 18.6232 20.9778 18.4536 20.8988L13.5563 18.4778C13.3103 18.3518 13.0155 18.3518 12.7695 18.4778L7.83618 20.9118C7.42366 21.1098 6.91888 20.9628 6.69406 20.5818C6.60816 20.4278 6.57847 20.2528 6.60816 20.0818L7.56258 14.9538C7.6103 14.6978 7.52016 14.4348 7.32291 14.2538L3.31648 10.6208C2.98985 10.3148 2.98773 9.81683 3.3133 9.50883C3.31436 9.50783 3.31542 9.50583 3.31648 9.50483C3.45116 9.38983 3.61659 9.31283 3.79581 9.28283L9.29538 8.53383C9.57004 8.49283 9.80652 8.33083 9.93166 8.09583L12.3856 3.44083C12.4842 3.25183 12.6592 3.10683 12.8713 3.04083C13.0844 2.97383 13.3177 2.98983 13.5182 3.08483C13.6825 3.16183 13.8172 3.28683 13.902 3.44083Z" stroke="#979797" stroke-width="1.5" stroke-linecap="round" stroke-linejoin="round"/>
</svg>
