<svg width="32" height="40" viewBox="0 0 32 40" fill="none" xmlns="http://www.w3.org/2000/svg">
<path d="M30.82 10.82L21.16 1.16C20.42 0.42 19.4 0 18.34 0H4C1.8 0 0.0200005 1.8 0.0200005 4L0 36C0 38.2 1.78 40 3.98 40H28C30.2 40 32 38.2 32 36V13.66C32 12.6 31.58 11.58 30.82 10.82ZM21.6 26H18V32C18 33.1 17.1 34 16 34C14.9 34 14 33.1 14 32V26H10.42C9.52 26 9.08 24.92 9.72 24.3L15.32 18.72C15.72 18.34 16.34 18.34 16.74 18.72L22.32 24.3C22.92 24.92 22.48 26 21.6 26ZM20 14C18.9 14 18 13.1 18 12V3L29 14H20Z" fill="#507AEA"/>
</svg>
